<svg width="43" height="44" viewBox="0 0 43 44" fill="none" xmlns="http://www.w3.org/2000/svg">
<path d="M21.998 4.47021C19.6999 4.47021 17.4243 4.93364 15.3011 5.83404C13.1779 6.73444 11.2487 8.05417 9.62368 9.71789C6.34179 13.0779 4.49805 17.6351 4.49805 22.3869C4.49805 30.306 9.52055 37.0248 16.468 39.4077C17.343 39.551 17.623 38.9956 17.623 38.5119V35.484C12.7755 36.559 11.743 33.0831 11.743 33.0831C10.938 31.0048 9.80055 30.4494 9.80055 30.4494C8.20805 29.3385 9.92305 29.3744 9.92305 29.3744C11.673 29.4998 12.6005 31.2198 12.6005 31.2198C14.123 33.9431 16.6955 33.1369 17.693 32.7069C17.8505 31.5423 18.3055 30.754 18.7955 30.306C14.9105 29.8581 10.833 28.3173 10.833 21.491C10.833 19.5023 11.498 17.9077 12.6355 16.6356C12.4605 16.1877 11.848 14.3244 12.8105 11.9056C12.8105 11.9056 14.2805 11.4219 17.623 13.7331C19.0055 13.339 20.5105 13.1419 21.998 13.1419C23.4855 13.1419 24.9905 13.339 26.373 13.7331C29.7155 11.4219 31.1855 11.9056 31.1855 11.9056C32.148 14.3244 31.5355 16.1877 31.3605 16.6356C32.498 17.9077 33.163 19.5023 33.163 21.491C33.163 28.3352 29.068 29.8402 25.1655 30.2881C25.7955 30.8435 26.373 31.9365 26.373 33.6027V38.5119C26.373 38.9956 26.653 39.569 27.5455 39.4077C34.493 37.0069 39.498 30.306 39.498 22.3869C39.498 20.034 39.0454 17.7042 38.1659 15.5305C37.2865 13.3567 35.9974 11.3816 34.3724 9.71789C32.7474 8.05417 30.8182 6.73444 28.695 5.83404C26.5718 4.93364 24.2962 4.47021 21.998 4.47021Z" fill="#686977"/>
</svg>
