<svg width="47" height="47" viewBox="0 0 47 47" fill="none" xmlns="http://www.w3.org/2000/svg">
<path d="M23.998 14.762C22.2922 14.762 20.6246 15.2678 19.2063 16.2155C17.7879 17.1633 16.6824 18.5103 16.0296 20.0863C15.3768 21.6623 15.206 23.3965 15.5388 25.0696C15.8716 26.7427 16.693 28.2795 17.8993 29.4858C19.1055 30.692 20.6423 31.5134 22.3154 31.8462C23.9885 32.179 25.7227 32.0082 27.2987 31.3554C28.8747 30.7026 30.2217 29.5971 31.1695 28.1788C32.1172 26.7604 32.623 25.0928 32.623 23.387C32.6207 21.1002 31.7112 18.9078 30.0942 17.2908C28.4772 15.6738 26.2848 14.7643 23.998 14.762ZM23.998 29.137C22.8608 29.137 21.7491 28.7997 20.8035 28.1679C19.8579 27.5361 19.1209 26.6381 18.6857 25.5874C18.2505 24.5367 18.1367 23.3806 18.3585 22.2652C18.5804 21.1498 19.128 20.1253 19.9322 19.3211C20.7363 18.5169 21.7609 17.9693 22.8763 17.7474C23.9917 17.5256 25.1478 17.6395 26.1985 18.0747C27.2492 18.5099 28.1472 19.2469 28.779 20.1924C29.4108 21.138 29.748 22.2497 29.748 23.387C29.748 24.912 29.1422 26.3745 28.0639 27.4528C26.9856 28.5312 25.523 29.137 23.998 29.137ZM32.623 4.69946H15.373C12.7052 4.70232 10.1474 5.76339 8.26094 7.64985C6.37447 9.53632 5.3134 12.0941 5.31055 14.762V32.012C5.3134 34.6798 6.37447 37.2376 8.26094 39.1241C10.1474 41.0105 12.7052 42.0716 15.373 42.0745H32.623C35.2909 42.0716 37.8487 41.0105 39.7352 39.1241C41.6216 37.2376 42.6827 34.6798 42.6855 32.012V14.762C42.6827 12.0941 41.6216 9.53632 39.7352 7.64985C37.8487 5.76339 35.2909 4.70232 32.623 4.69946ZM39.8105 32.012C39.8105 33.9182 39.0533 35.7464 37.7054 37.0943C36.3575 38.4422 34.5293 39.1995 32.623 39.1995H15.373C13.4668 39.1995 11.6386 38.4422 10.2907 37.0943C8.9428 35.7464 8.18555 33.9182 8.18555 32.012V14.762C8.18555 12.8557 8.9428 11.0276 10.2907 9.67963C11.6386 8.33172 13.4668 7.57446 15.373 7.57446H32.623C34.5293 7.57446 36.3575 8.33172 37.7054 9.67963C39.0533 11.0276 39.8105 12.8557 39.8105 14.762V32.012ZM35.498 14.0432C35.498 14.4697 35.3716 14.8866 35.1347 15.2412C34.8977 15.5958 34.561 15.8721 34.167 16.0353C33.773 16.1985 33.3394 16.2412 32.9211 16.158C32.5029 16.0748 32.1187 15.8695 31.8171 15.5679C31.5155 15.2664 31.3102 14.8821 31.227 14.4639C31.1438 14.0456 31.1865 13.6121 31.3497 13.2181C31.5129 12.824 31.7893 12.4873 32.1438 12.2504C32.4984 12.0134 32.9153 11.887 33.3418 11.887C33.9137 11.887 34.4621 12.1141 34.8665 12.5185C35.2709 12.9229 35.498 13.4713 35.498 14.0432Z" fill="#686977"/>
</svg>
