<svg width="117" height="128" viewBox="0 0 117 128" fill="none" xmlns="http://www.w3.org/2000/svg">
<path d="M39.8652 4.40524L32.9998 10.6385L90.3338 33.5751L59.1292 4.80737C53.6656 -0.125888 45.0761 -0.412537 39.8652 4.40524ZM15.1922 125.211L103.317 127.227C105.987 127.316 108.589 126.688 110.805 125.419C113.02 124.15 114.753 122.297 115.788 120.087C116.43 118.601 116.78 116.932 116.724 115.167L115.562 65.3132C115.447 60.2409 111.884 55.7332 107.235 53.7393C105.609 53.0218 103.644 52.5708 101.771 52.4246L13.5473 50.637C10.8745 50.5149 8.26158 51.1332 6.04867 52.4112C3.83575 53.6893 2.12532 55.568 1.13999 57.8029C0.497781 59.2883 0.236535 60.9261 0.190465 62.583L1.37643 112.379C1.44006 115.683 2.93117 118.891 5.52194 121.297C8.1127 123.703 11.591 125.111 15.1922 125.211ZM30.9558 23.2905C27.5879 21.9431 23.8375 21.8548 20.5296 23.045C17.2217 24.2352 14.6274 26.6063 13.3172 29.6368L9.73565 37.9209L71.2102 39.3944" fill="#AACE9B"/>
</svg>
