<svg width="131" height="131" viewBox="0 0 131 131" fill="none" xmlns="http://www.w3.org/2000/svg">
<path d="M100.062 23.8398H10.0625C4.53965 23.8398 0.0625 29.131 0.0625 35.6581V118.386C0.0625 124.913 4.53965 130.204 10.0625 130.204H100.062C105.585 130.204 110.062 124.913 110.062 118.386V35.6581C110.062 29.131 105.585 23.8398 100.062 23.8398Z" fill="#AACE9B"/>
<path d="M120.062 0.203125H25.0625C23.7364 0.203125 22.4646 0.825692 21.527 1.93387C20.5893 3.04204 20.0625 4.54504 20.0625 6.11224C20.0625 7.67943 20.5893 9.18244 21.527 10.2906C22.4646 11.3988 23.7364 12.0214 25.0625 12.0214H120.062V100.658C120.062 102.225 120.589 103.728 121.527 104.836C122.465 105.945 123.736 106.567 125.062 106.567C126.389 106.567 127.66 105.945 128.598 104.836C129.536 103.728 130.062 102.225 130.062 100.658V12.0214C130.062 8.88696 129.009 5.88095 127.134 3.6646C125.258 1.44826 122.715 0.203125 120.062 0.203125Z" fill="#AACE9B"/>
</svg>
