<svg width="14" height="12" viewBox="0 0 14 12" fill="none" xmlns="http://www.w3.org/2000/svg">
<path fill-rule="evenodd" clip-rule="evenodd" d="M1.90908 0.272949H12.0908C13.1372 0.272949 13.9916 1.12235 13.9998 2.16687C14 2.17566 14.0001 2.18445 13.9999 2.19323V9.81833C13.9999 10.8698 13.1423 11.7274 12.0908 11.7274H1.90908C0.85763 11.7274 0 10.8698 0 9.81833V2.18203C0 1.13058 0.85763 0.272949 1.90908 0.272949ZM12.6593 1.89826C12.5541 1.69011 12.3376 1.54567 12.0907 1.54567H1.90899C1.66213 1.54567 1.44574 1.69004 1.34048 1.89812L7 5.85978L12.6593 1.89826ZM1.27263 3.40417L6.63507 7.15788C6.85418 7.31125 7.14582 7.31125 7.36493 7.15788L12.7271 3.40436V9.81833C12.7271 10.1669 12.4393 10.4547 12.0907 10.4547H1.90899C1.56045 10.4547 1.27263 10.1669 1.27263 9.81833V3.40417Z" fill="#F13312"/>
<mask id="mask0_1669_6588" style="mask-type:luminance" maskUnits="userSpaceOnUse" x="0" y="0" width="14" height="12">
<path fill-rule="evenodd" clip-rule="evenodd" d="M1.90908 0.272949H12.0908C13.1372 0.272949 13.9916 1.12235 13.9998 2.16687C14 2.17566 14.0001 2.18445 13.9999 2.19323V9.81833C13.9999 10.8698 13.1423 11.7274 12.0908 11.7274H1.90908C0.85763 11.7274 0 10.8698 0 9.81833V2.18203C0 1.13058 0.85763 0.272949 1.90908 0.272949ZM12.6593 1.89826C12.5541 1.69011 12.3376 1.54567 12.0907 1.54567H1.90899C1.66213 1.54567 1.44574 1.69004 1.34048 1.89812L7 5.85978L12.6593 1.89826ZM1.27263 3.40417L6.63507 7.15788C6.85418 7.31125 7.14582 7.31125 7.36493 7.15788L12.7271 3.40436V9.81833C12.7271 10.1669 12.4393 10.4547 12.0907 10.4547H1.90899C1.56045 10.4547 1.27263 10.1669 1.27263 9.81833V3.40417Z" fill="white"/>
</mask>
<g mask="url(#mask0_1669_6588)">
<path d="M-0.636719 -1.63623H14.6359V13.6364H-0.636719V-1.63623Z" fill="#AACE9B"/>
</g>
</svg>
