<svg width="130" height="130" viewBox="0 0 130 130" fill="none" xmlns="http://www.w3.org/2000/svg">
<path d="M100 23.6364H10C7.34784 23.6364 4.8043 24.8815 2.92893 27.0978C1.05357 29.3142 0 32.3202 0 35.4545V118.182C0 121.316 1.05357 124.322 2.92893 126.539C4.8043 128.755 7.34784 130 10 130H100C102.652 130 105.196 128.755 107.071 126.539C108.946 124.322 110 121.316 110 118.182V35.4545C110 32.3202 108.946 29.3142 107.071 27.0978C105.196 24.8815 102.652 23.6364 100 23.6364ZM100 118.182H10V35.4545H100V118.182ZM130 11.8182V100.455C130 102.022 129.473 103.525 128.536 104.633C127.598 105.741 126.326 106.364 125 106.364C123.674 106.364 122.402 105.741 121.464 104.633C120.527 103.525 120 102.022 120 100.455V11.8182H25C23.6739 11.8182 22.4021 11.1956 21.4645 10.0874C20.5268 8.97928 20 7.47628 20 5.90909C20 4.3419 20.5268 2.8389 21.4645 1.73073C22.4021 0.622564 23.6739 0 25 0H120C122.652 0 125.196 1.24513 127.071 3.46146C128.946 5.6778 130 8.68381 130 11.8182Z" fill="#AACE9B"/>
</svg>
