<svg width="46" height="47" viewBox="0 0 46 47" fill="none" xmlns="http://www.w3.org/2000/svg">
<path d="M43.1098 11.887C41.666 12.5579 40.1098 12.9987 38.4973 13.2095C40.1473 12.1937 41.4223 10.5837 42.0223 8.64788C40.466 9.60621 38.741 10.277 36.9223 10.6604C35.441 9.01204 33.3598 8.05371 30.9973 8.05371C26.591 8.05371 22.991 11.7337 22.991 16.2762C22.991 16.9279 23.066 17.5604 23.1973 18.1545C16.5223 17.8095 10.5785 14.532 6.62227 9.56788C5.92852 10.7754 5.53477 12.1937 5.53477 13.6887C5.53477 16.5445 6.94102 19.0745 9.11602 20.512C7.78477 20.512 6.54727 20.1287 5.45977 19.5537V19.6112C5.45977 23.5979 8.23477 26.9329 11.9098 27.6804C10.7299 28.0104 9.49119 28.0564 8.29102 27.8145C8.80028 29.4485 9.79765 30.8782 11.1429 31.9027C12.4882 32.9272 14.1137 33.495 15.791 33.5262C12.9478 35.8271 9.42351 37.0707 5.79727 37.0529C5.15977 37.0529 4.52227 37.0145 3.88477 36.9379C7.44727 39.2762 11.6848 40.637 16.2223 40.637C30.9973 40.637 39.116 28.102 39.116 17.2345C39.116 16.8704 39.116 16.5254 39.0973 16.1612C40.6723 15.0112 42.0223 13.5545 43.1098 11.887Z" fill="#686977"/>
</svg>
