<svg width="55" height="55" viewBox="0 0 55 55" fill="none" xmlns="http://www.w3.org/2000/svg">
<path d="M43.748 7.13696C44.9415 7.13696 46.0861 7.61107 46.93 8.45498C47.7739 9.2989 48.248 10.4435 48.248 11.637V43.137C48.248 44.3304 47.7739 45.475 46.93 46.3189C46.0861 47.1629 44.9415 47.637 43.748 47.637H12.248C11.0546 47.637 9.90998 47.1629 9.06607 46.3189C8.22215 45.475 7.74805 44.3304 7.74805 43.137V11.637C7.74805 10.4435 8.22215 9.2989 9.06607 8.45498C9.90998 7.61107 11.0546 7.13696 12.248 7.13696H43.748ZM42.623 42.012V30.087C42.623 28.1416 41.8503 26.2759 40.4747 24.9003C39.0991 23.5248 37.2334 22.752 35.288 22.752C33.3755 22.752 31.148 23.922 30.068 25.677V23.1795H23.7905V42.012H30.068V30.9195C30.068 29.187 31.463 27.7695 33.1955 27.7695C34.031 27.7695 34.8322 28.1013 35.4229 28.6921C36.0137 29.2828 36.3455 30.084 36.3455 30.9195V42.012H42.623ZM16.478 19.647C17.4806 19.647 18.442 19.2487 19.1509 18.5398C19.8598 17.8309 20.258 16.8695 20.258 15.867C20.258 13.7745 18.5705 12.0645 16.478 12.0645C15.4696 12.0645 14.5024 12.4651 13.7893 13.1782C13.0762 13.8913 12.6755 14.8585 12.6755 15.867C12.6755 17.9595 14.3855 19.647 16.478 19.647ZM19.6055 42.012V23.1795H13.373V42.012H19.6055Z" fill="#686977"/>
</svg>
