<svg width="42" height="41" viewBox="0 0 42 41" fill="none" xmlns="http://www.w3.org/2000/svg">
<path d="M36.75 0.136963C37.9435 0.136963 39.0881 0.611068 39.932 1.45498C40.7759 2.2989 41.25 3.44349 41.25 4.63696V36.137C41.25 37.3304 40.7759 38.475 39.932 39.3189C39.0881 40.1629 37.9435 40.637 36.75 40.637H5.25C4.05653 40.637 2.91193 40.1629 2.06802 39.3189C1.22411 38.475 0.75 37.3304 0.75 36.137V4.63696C0.75 3.44349 1.22411 2.2989 2.06802 1.45498C2.91193 0.611068 4.05653 0.136963 5.25 0.136963H36.75ZM35.625 35.012V23.087C35.625 21.1416 34.8522 19.2759 33.4766 17.9003C32.101 16.5248 30.2354 15.752 28.29 15.752C26.3775 15.752 24.15 16.922 23.07 18.677V16.1795H16.7925V35.012H23.07V23.9195C23.07 22.187 24.465 20.7695 26.1975 20.7695C27.0329 20.7695 27.8341 21.1013 28.4249 21.6921C29.0156 22.2828 29.3475 23.084 29.3475 23.9195V35.012H35.625ZM9.48 12.647C10.4825 12.647 11.444 12.2487 12.1529 11.5398C12.8618 10.8309 13.26 9.86948 13.26 8.86696C13.26 6.77446 11.5725 5.06446 9.48 5.06446C8.47151 5.06446 7.50433 5.46508 6.79123 6.17819C6.07812 6.8913 5.6775 7.85848 5.6775 8.86696C5.6775 10.9595 7.3875 12.647 9.48 12.647ZM12.6075 35.012V16.1795H6.375V35.012H12.6075Z" fill="#686977"/>
</svg>
